<svg width="20" height="21" viewBox="0 0 20 21" fill="none" xmlns="http://www.w3.org/2000/svg">
    <path d="M10 9.5C12.2091 9.5 14 7.70914 14 5.5C14 3.29086 12.2091 1.5 10 1.5C7.79086 1.5 6 3.29086 6 5.5C6 7.70914 7.79086 9.5 10 9.5Z" 
          stroke="#5E6F76" stroke-width="1.8" stroke-linejoin="round"/>
    
    <path d="M10 12.5C6.5 12.5 3 14.5 3 16.5V17.5C3 18.6046 3.89543 19.5 5 19.5H15C16.1046 19.5 17 18.6046 17 17.5V16.5C17 14.5 13.5 12.5 10 12.5Z" 
          fill="#5E6F76" fill-opacity="0.15" stroke="#5E6F76" stroke-width="1.8" stroke-linejoin="round"/>
    
    <path d="M10 12.5V19.5" stroke="#5E6F76" stroke-width="1.2" stroke-dasharray="2 2"/>
</svg>